# installed by mod_tool.py
v 0.051436 -0.548762 10.427477
v -1.386661 -0.250533 10.397477
v -2.947033 -0.327806 10.205916
v 4.132912 -0.619119 8.475413
v 3.049906 -0.327806 10.205916
v 0.051436 -1.097549 10.445092
v -4.030039 -0.619119 8.475413
v 0.051436 -2.039538 7.647783
v 0.051436 1.097549 10.445092
v 0.051436 2.039538 7.647783
v -4.030039 0.619120 8.475413
v 4.132912 0.619120 8.475413
v 0.051436 2.039538 7.647783
v -2.947033 0.327806 10.205916
v 0.051436 -2.039538 7.647783
v 1.489534 -0.250533 10.397477
v 1.489534 0.250533 11.050189
v 1.489534 -0.250533 11.050189
v -1.386661 0.250533 11.050189
v 0.051436 0.548763 11.039546
v 0.051436 0.548763 10.427477
v -1.386661 0.250533 10.397477
v 0.051436 -0.548762 11.039546
v -1.386661 -0.250533 11.050189
v 1.489534 0.250533 10.397477
v 0.051436 0.548763 11.039546
v -1.386661 -0.250533 11.050189
v 3.049906 -0.327806 10.205916
v 0.051436 0.271448 30.957928
v 0.051436 0.000002 32.628530
v 0.799542 0.000002 31.484795
v 1.657766 0.805021 12.996610
v 0.556549 0.562953 12.628175
v 0.302643 0.562952 14.922246
v -0.696669 0.000002 31.484795
v 0.051436 0.000002 32.628530
v 0.051436 0.271448 30.957928
v 1.489534 -0.250533 11.050189
v 1.489534 0.250533 11.050189
v 2.633713 -0.000000 12.134094
v -1.386661 0.250533 11.050189
v -1.386661 -0.250533 11.050189
v -2.530840 -0.000000 12.134094
v -0.902138 0.562952 18.862561
v -0.453676 -0.562952 12.628175
v 0.051436 -0.899994 11.898904
v 0.051436 -0.727383 14.920103
v -1.554893 0.805021 12.996610
v -3.396084 0.000000 12.628175
v -2.571969 0.000000 15.291210
v 3.498957 0.000000 12.628175
v 2.633713 -0.000000 12.134094
v -2.530840 -0.000000 12.134094
v -3.396084 0.000000 12.628175
v -1.554893 0.805021 12.996610
v -0.597503 0.445280 11.898904
v 0.051436 0.548763 11.039546
v 0.051436 0.727385 14.920103
v 0.051436 0.562952 15.573501
v 0.302643 0.562952 14.922246
v 0.051436 0.899995 11.898904
v 0.700376 0.445280 11.898904
v 0.051436 0.899995 11.898904
v 0.051436 0.727385 14.920103
v 0.051436 0.899995 11.898904
v -0.453676 0.562953 12.628175
v 0.051436 -0.899994 11.898904
v 0.051436 -0.548762 11.039546
v 0.700376 -0.445280 11.898904
v 0.799542 0.000002 31.484795
v 0.051436 0.000002 32.628530
v 0.051436 -0.271445 30.957928
v 0.051436 -0.562950 15.573501
v -0.199770 -0.562952 14.922246
v 0.051436 -0.271445 30.957928
v 0.051436 0.000002 32.628530
v -0.696669 0.000002 31.484795
v 1.005011 -0.562950 18.862561
v 1.657766 -0.805021 12.996610
v 3.498957 0.000000 12.628175
v 2.674842 0.000000 15.291210
v -0.597503 -0.445280 11.898904
v 2.633713 -0.000000 12.134094
v 3.498957 0.000000 12.628175
v 1.657766 -0.805021 12.996610
v -1.554893 -0.805021 12.996610
v -3.396084 0.000000 12.628175
v -2.530840 -0.000000 12.134094
v 1.005011 0.562952 18.862561
v 0.051436 0.562952 20.894313
v 0.051436 0.562952 20.894313
v -0.902138 -0.562950 18.862561
v 0.051436 -0.562950 20.894313
v 0.051436 -0.562950 20.894313
v -1.939300 0.000001 18.422411
v 2.042173 0.000001 18.422411
v 1.005011 0.562952 18.862561
v -0.199770 -0.562952 14.922246
v 1.005011 -0.562950 18.862561
v 0.051436 -0.562950 15.573501
v 0.302643 -0.562952 14.922246
v 0.051436 0.562952 15.573501
v -0.728601 -0.000000 4.044188
v 0.051436 0.618263 4.044188
v -0.629676 1.101725 2.615590
v 0.732549 -1.101726 2.615590
v 1.413662 -0.000000 2.615590
v 0.831474 -0.000000 4.044188
v -1.310789 -0.000000 2.615590
v 0.601412 -0.000000 6.096297
v 1.081116 0.000000 9.512660
v 0.051436 -0.638682 9.512660
v 0.051436 0.434917 6.096297
v 0.051436 0.556623 -0.017763
v -0.548932 0.632526 2.956696
v 0.651805 0.632526 2.956696
v 0.051436 -0.000000 -0.751215
v 1.221075 0.556623 1.211138
v 1.854984 0.000000 1.100929
v -1.752111 0.000000 1.100929
v -1.118202 0.556623 1.211138
v -0.899977 0.000000 2.956696
v 1.221075 -0.556623 1.211138
v 0.051436 -0.556623 -0.017763
v -0.548932 -0.632526 2.956696
v 0.051436 2.039538 7.647783
v 4.132912 0.619120 8.475413
v 4.132912 -0.619119 8.475413
v 0.051436 -2.039538 7.647783
v -4.030039 -0.619119 8.475413
v -4.030039 0.619120 8.475413
v 3.049906 0.327806 10.205916
v -1.386661 -0.250533 10.397477
v 1.489534 -0.250533 10.397477
v 1.489534 -0.250533 11.050189
v 4.132912 -0.619119 8.475413
v -2.947033 -0.327806 10.205916
v -4.030039 -0.619119 8.475413
v 0.556549 -0.562952 12.628175
v 2.042173 0.000001 18.422411
v 1.657766 0.805021 12.996610
v 2.674842 0.000000 15.291210
v 3.498957 0.000000 12.628175
v 0.051436 -0.727383 14.920103
v 0.051436 -0.899994 11.898904
v -0.199770 0.562952 14.922246
v 0.051436 0.562952 15.573501
v 0.302643 -0.562952 14.922246
v 0.051436 -0.562950 15.573501
v 0.051436 0.548763 11.039546
v 0.051436 0.899995 11.898904
v -0.199770 0.562952 14.922246
v -0.902138 0.562952 18.862561
v 0.051436 0.562952 20.894313
v -1.939300 0.000001 18.422411
v -1.554893 -0.805021 12.996610
v -2.571969 0.000000 15.291210
v -3.396084 0.000000 12.628175
v 0.051436 -0.562950 20.894313
v -0.902138 -0.562950 18.862561
v 0.732549 1.101725 2.615590
v 0.051436 -0.434918 6.096297
v -0.978243 0.000000 9.512660
v 0.051436 -0.618263 4.044188
v -0.629676 -1.101726 2.615590
v -0.498539 -0.000000 6.096297
v 0.051436 0.638682 9.512660
v -1.118202 -0.556623 1.211138
v 0.651805 -0.632526 2.956696
v 1.002850 0.000000 2.956696
vt 0.577597 0.653539
vt 0.556201 0.762311
vt 0.595059 0.924416
vt 0.710288 0.382744
vt 0.595059 0.382663
vt 0.613693 0.653539
vt 0.710288 0.924335
vt 0.833746 0.653539
vt 0.613693 0.653539
vt 0.833746 0.653539
vt 0.710288 0.924335
vt 0.710288 0.382744
vt 0.833746 0.653539
vt 0.595059 0.924416
vt 0.833746 0.653539
vt 0.556201 0.502973
vt 0.504913 0.544767
vt 0.504913 0.502973
vt 0.504913 0.762311
vt 0.529501 0.653539
vt 0.577597 0.653539
vt 0.556201 0.762311
vt 0.529501 0.653539
vt 0.504913 0.762311
vt 0.556201 0.544767
vt 0.529501 0.653539
vt 0.504913 0.796346
vt 0.595059 0.312105
vt 0.250000 0.071529
vt 0.250000 -0.003591
vt 0.310208 0.071529
vt 0.393903 0.920249
vt 0.291684 0.920250
vt 0.270730 0.805810
vt 0.189792 0.071529
vt 0.250000 -0.003591
vt 0.250000 0.071529
vt 0.368677 0.983342
vt 0.368677 0.983342
vt 0.423505 0.936171
vt 0.131323 0.983342
vt 0.131323 0.983342
vt 0.076495 0.936171
vt 0.142036 0.646504
vt 0.208316 0.920250
vt 0.250000 0.956629
vt 0.250000 0.805917
vt 0.106097 0.920249
vt 0.021667 0.912437
vt 0.059360 0.767868
vt 0.478333 0.912437
vt 0.423505 0.936171
vt 0.076495 0.936171
vt 0.021667 0.912437
vt 0.106097 0.920249
vt 0.196447 0.956629
vt 0.250000 0.991139
vt 0.250000 0.805917
vt 0.249998 0.789015
vt 0.270730 0.805810
vt 0.250000 0.956629
vt 0.303553 0.956629
vt 0.250000 0.956629
vt 0.250000 0.805917
vt 0.250000 0.956629
vt 0.208316 0.920250
vt 0.250000 0.956629
vt 0.250000 0.991139
vt 0.303553 0.956629
vt 0.310208 0.071529
vt 0.250000 -0.003591
vt 0.250000 0.071529
vt 0.249998 0.789015
vt 0.229270 0.805810
vt 0.250000 0.071529
vt 0.250000 -0.003591
vt 0.189792 0.071529
vt 0.357964 0.646504
vt 0.393903 0.920249
vt 0.478333 0.912437
vt 0.440852 0.767868
vt 0.196447 0.956629
vt 0.423505 0.936171
vt 0.478333 0.912437
vt 0.393903 0.920249
vt 0.106097 0.920249
vt 0.021667 0.912437
vt 0.076495 0.936171
vt 0.357964 0.646504
vt 0.250000 0.545588
vt 0.250000 0.545588
vt 0.142036 0.646504
vt 0.250000 0.545588
vt 0.250000 0.545588
vt 0.077839 0.655185
vt 0.424220 0.655185
vt 0.357964 0.646504
vt 0.229270 0.805810
vt 0.357964 0.646504
vt 0.249998 0.789015
vt 0.270730 0.805810
vt 0.249998 0.789015
vt 0.850897 0.401539
vt 0.902344 0.401539
vt 0.857422 0.500000
vt 0.947266 0.500000
vt 0.992188 0.500000
vt 0.953790 0.401539
vt 0.812500 0.500000
vt 0.938617 0.260103
vt 0.970255 0.000000
vt 0.902344 0.000000
vt 0.902344 0.260103
vt 0.656291 0.231310
vt 0.620252 0.000493
vt 0.692329 0.000493
vt 0.656291 0.296681
vt 0.751370 0.122316
vt 0.813126 0.123090
vt 0.499456 0.123090
vt 0.561211 0.122316
vt 0.566111 -0.000667
vt 0.751370 0.122316
vt 0.656291 0.231310
vt 0.620252 0.000493
vt 0.812500 0.746094
vt 0.875071 0.500000
vt 0.929617 0.500000
vt 0.992188 0.746094
vt 0.929617 0.992188
vt 0.875071 0.992188
vt 0.595059 0.382663
vt 0.556201 0.796346
vt 0.556201 0.544767
vt 0.504913 0.544767
vt 0.710288 0.312207
vt 0.595059 0.994974
vt 0.710288 0.994872
vt 0.291684 0.920250
vt 0.424220 0.655185
vt 0.393903 0.920249
vt 0.440852 0.767868
vt 0.478333 0.912437
vt 0.250000 0.805917
vt 0.250000 0.956629
vt 0.229270 0.805810
vt 0.249998 0.789015
vt 0.270730 0.805810
vt 0.249998 0.789015
vt 0.250000 0.991139
vt 0.250000 0.956629
vt 0.229270 0.805810
vt 0.142036 0.646504
vt 0.250000 0.545588
vt 0.077839 0.655185
vt 0.106097 0.920249
vt 0.059360 0.767868
vt 0.021667 0.912437
vt 0.250000 0.545588
vt 0.142036 0.646504
vt 0.947266 0.500000
vt 0.902344 0.260103
vt 0.834433 0.000000
vt 0.902344 0.401539
vt 0.857422 0.500000
vt 0.866071 0.260103
vt 0.902344 0.000000
vt 0.561211 0.122316
vt 0.692329 0.000493
vt 0.746471 -0.000667
vn -0.000000 -0.564395 0.825505
vn -0.518362 -0.491320 0.699932
vn -0.332203 -0.296955 0.895242
vn 0.533262 -0.715228 0.451752
vn 0.332203 -0.296955 0.895242
vn 0.000000 -0.742375 0.669984
vn -0.533262 -0.715228 0.451752
vn -0.256251 -0.916065 0.308482
vn 0.000000 0.742375 0.669984
vn -0.256251 0.916065 0.308482
vn -0.533262 0.715228 0.451752
vn 0.533262 0.715228 0.451752
vn 0.256251 0.916065 0.308482
vn -0.332203 0.296955 0.895242
vn 0.256251 -0.916065 0.308482
vn 0.518362 -0.491320 0.699932
vn 0.529995 0.800853 -0.278820
vn 0.529995 -0.800853 -0.278820
vn -0.529995 0.800853 -0.278820
vn -0.325910 0.937619 -0.121055
vn 0.000000 0.564395 0.825505
vn -0.518362 0.491320 0.699932
vn 0.000000 -0.991768 -0.128046
vn -0.529995 -0.800853 -0.278820
vn 0.518362 0.491320 0.699932
vn 0.325910 0.937619 -0.121055
vn -0.529995 -0.800853 -0.278820
vn 0.332203 -0.296955 0.895242
vn 0.205086 0.975637 0.077924
vn 0.238156 0.958654 0.155769
vn 0.349730 0.933079 0.083974
vn 0.029808 0.976935 -0.211448
vn 0.272668 0.961769 -0.025549
vn -0.116586 0.993180 0.000736
vn -0.349730 0.933079 0.083974
vn -0.238156 0.958654 0.155769
vn -0.205086 0.975637 0.077924
vn 0.529995 -0.800853 -0.278820
vn 0.529995 0.800853 -0.278820
vn 0.687729 0.000000 -0.725967
vn -0.529995 0.800853 -0.278820
vn -0.529995 -0.800853 -0.278820
vn -0.687729 0.000000 -0.725967
vn -0.348622 0.935668 0.054661
vn -0.272668 -0.961769 -0.025549
vn -0.539734 -0.841699 0.015168
vn -0.529909 -0.841450 0.105629
vn -0.466797 0.878006 0.105859
vn -0.418894 0.898735 0.129630
vn -0.447438 0.887158 0.112916
vn 0.271098 0.837323 -0.474760
vn 0.364324 0.849804 -0.380923
vn -0.364324 0.849804 -0.380923
vn -0.271098 0.837323 -0.474760
vn -0.029807 0.976935 -0.211448
vn -0.236987 0.955524 -0.175532
vn -0.325910 0.937619 -0.121055
vn 0.529909 0.841451 0.105629
vn 0.534662 0.819510 0.206251
vn 0.541955 0.829701 0.133720
vn -0.544174 0.776609 -0.317416
vn 0.236988 0.955524 -0.175532
vn 0.539734 0.841699 0.015168
vn -0.529909 0.841451 0.105629
vn -0.539734 0.841699 0.015168
vn -0.272668 0.961769 -0.025549
vn 0.000000 -0.925667 -0.378339
vn 0.000000 -0.991768 -0.128046
vn 0.236987 -0.955524 -0.175532
vn 0.349731 -0.933079 0.083974
vn 0.238157 -0.958654 0.155769
vn 0.205086 -0.975637 0.077924
vn -0.534663 -0.819510 0.206251
vn -0.541955 -0.829701 0.133720
vn -0.205086 -0.975637 0.077924
vn -0.238157 -0.958654 0.155769
vn -0.349731 -0.933079 0.083974
vn 0.348623 -0.935668 0.054661
vn 0.466798 -0.878006 0.105859
vn 0.418894 -0.898735 0.129630
vn 0.447438 -0.887158 0.112916
vn -0.236987 -0.955524 -0.175532
vn 0.364324 -0.849804 -0.380922
vn 0.271098 -0.837323 -0.474759
vn 0.029807 -0.976935 -0.211448
vn -0.029807 -0.976935 -0.211448
vn -0.271098 -0.837323 -0.474759
vn -0.364324 -0.849804 -0.380922
vn 0.348622 0.935668 0.054661
vn 0.061570 0.997684 0.028899
vn -0.061570 0.997684 0.028899
vn -0.348623 -0.935668 0.054661
vn -0.061571 -0.997684 0.028899
vn 0.061571 -0.997684 0.028899
vn -0.490833 0.867739 0.078174
vn 0.490834 -0.867739 0.078174
vn -0.047128 0.998854 0.008401
vn 0.116586 -0.993180 0.000736
vn -0.047128 -0.998854 0.008401
vn 0.000000 -1.000000 0.000000
vn -0.116586 -0.993180 0.000736
vn 0.000000 1.000000 0.000000
vn -0.911469 0.000000 0.411368
vn 0.000000 0.937549 0.347853
vn -0.533668 0.843931 0.054576
vn 0.533668 -0.843931 0.054576
vn 0.977734 -0.000000 -0.209846
vn 0.911469 0.000000 0.411368
vn -0.977734 -0.000000 -0.209846
vn 0.999989 0.000000 0.004791
vn 0.993555 0.000000 -0.113350
vn 0.000000 -0.997007 -0.077305
vn 0.000000 0.999994 0.003517
vn 0.000000 0.969454 -0.245275
vn -0.288662 0.953817 0.083111
vn 0.288662 0.953817 0.083111
vn 0.000000 -0.000000 -1.000000
vn 0.496309 0.862742 -0.096717
vn 0.985077 0.000000 -0.172113
vn -0.985077 0.000000 -0.172113
vn -0.496309 0.862742 -0.096717
vn -0.935412 0.000000 0.353559
vn 0.496309 -0.862742 -0.096717
vn 0.000000 -0.969454 -0.245275
vn -0.288662 -0.953817 0.083111
vn 0.000000 -0.000000 -1.000000
vn 0.198735 -0.000000 -0.980053
vn 0.198735 -0.000000 -0.980053
vn 0.000000 -0.000000 -1.000000
vn -0.198735 -0.000000 -0.980053
vn -0.198735 -0.000000 -0.980053
vn 0.332203 0.296955 0.895242
vn -0.518362 -0.491320 0.699932
vn 0.518362 -0.491320 0.699932
vn 0.529995 -0.800853 -0.278820
vn 0.533262 -0.715228 0.451752
vn -0.332203 -0.296955 0.895242
vn -0.533262 -0.715228 0.451752
vn 0.272668 -0.961769 -0.025549
vn 0.490833 0.867739 0.078174
vn 0.466797 0.878006 0.105859
vn 0.447438 0.887158 0.112916
vn 0.418894 0.898735 0.129630
vn 0.529909 -0.841450 0.105629
vn 0.539734 -0.841699 0.015168
vn -0.541955 0.829701 0.133720
vn -0.534662 0.819510 0.206251
vn 0.541955 -0.829701 0.133720
vn 0.534663 -0.819510 0.206251
vn 0.325910 0.937619 -0.121055
vn 0.544174 0.776609 -0.317416
vn 0.116586 0.993180 0.000736
vn 0.047128 0.998854 0.008401
vn 0.000000 1.000000 0.000000
vn -0.490834 -0.867739 0.078174
vn -0.466798 -0.878006 0.105859
vn -0.447438 -0.887158 0.112916
vn -0.418894 -0.898735 0.129630
vn 0.000000 -1.000000 0.000000
vn 0.047128 -0.998854 0.008401
vn 0.533668 0.843931 0.054576
vn 0.000000 -0.999994 0.003518
vn -0.993555 0.000000 -0.113350
vn 0.000000 -0.937549 0.347853
vn -0.533668 -0.843931 0.054576
vn -0.999989 0.000000 0.004791
vn 0.000000 0.997007 -0.077305
vn -0.496309 -0.862742 -0.096717
vn 0.288662 -0.953817 0.083111
vn 0.935412 0.000000 0.353559
f 1/1/1 2/2/2 3/3/3
f 4/4/4 5/5/5 6/6/6
f 7/7/7 8/8/8 6/6/6
f 9/9/9 10/10/10 11/11/11
f 12/12/12 13/13/13 9/9/9
f 11/11/11 14/14/14 9/9/9
f 6/6/6 15/15/15 4/4/4
f 6/6/6 3/3/3 7/7/7
f 16/16/16 17/17/17 18/18/18
f 19/19/19 20/20/20 21/21/21
f 19/19/19 21/21/21 22/22/22
f 2/2/2 1/1/1 23/23/23
f 2/2/2 23/23/23 24/24/24
f 25/25/25 21/21/21 26/26/26
f 27/27/27 19/19/19 22/22/22
f 28/28/28 25/25/25 16/16/16
f 29/29/29 30/30/30 31/31/31
f 32/32/32 33/33/33 34/34/34
f 35/35/35 36/36/36 37/37/37
f 38/38/38 39/39/39 40/40/40
f 41/41/41 42/42/42 43/43/43
f 44/44/44 35/35/35 37/37/37
f 45/45/45 46/46/46 47/47/47
f 48/48/48 49/49/49 50/50/50
f 32/32/32 51/51/51 52/52/52
f 53/53/53 54/54/54 55/55/55
f 56/56/56 57/57/57 41/41/41
f 58/58/58 59/59/59 60/60/60
f 61/61/61 57/57/57 56/56/56
f 33/33/33 62/62/62 63/63/63
f 32/32/32 62/62/62 33/33/33
f 41/41/41 55/55/55 56/56/56
f 58/58/58 60/60/60 33/33/33
f 64/64/64 65/65/65 66/66/66
f 33/33/33 63/63/63 58/58/58
f 67/67/67 68/68/68 69/69/69
f 70/70/70 71/71/71 72/72/72
f 47/47/47 73/73/73 74/74/74
f 75/75/75 76/76/76 77/77/77
f 78/78/78 70/70/70 72/72/72
f 79/79/79 80/80/80 81/81/81
f 82/82/82 68/68/68 67/67/67
f 47/47/47 74/74/74 45/45/45
f 42/42/42 68/68/68 82/82/82
f 83/83/83 84/84/84 85/85/85
f 86/86/86 87/87/87 88/88/88
f 89/89/89 90/90/90 29/29/29
f 37/37/37 91/91/91 44/44/44
f 92/92/92 93/93/93 75/75/75
f 72/72/72 94/94/94 78/78/78
f 95/95/95 35/35/35 44/44/44
f 96/96/96 70/70/70 78/78/78
f 55/55/55 41/41/41 53/53/53
f 85/85/85 38/38/38 83/83/83
f 97/97/97 32/32/32 34/34/34
f 86/86/86 45/45/45 98/98/98
f 99/99/99 100/100/100 101/101/101
f 34/34/34 102/102/102 97/97/97
f 101/101/101 85/85/85 99/99/99
f 103/103/103 104/104/104 105/105/105
f 106/106/106 107/107/107 108/108/108
f 105/105/105 109/109/109 103/103/103
f 110/110/110 111/111/111 112/112/112
f 113/113/113 104/104/104 103/103/103
f 113/113/113 111/111/111 110/110/110
f 110/110/110 104/104/104 113/113/113
f 114/114/114 115/115/115 116/116/116
f 117/117/117 118/118/118 119/119/119
f 120/120/120 121/121/121 114/114/114
f 122/122/122 121/121/121 120/120/120
f 119/119/119 123/123/123 124/124/124
f 120/120/120 125/125/125 122/122/122
f 126/126/126 127/127/127 128/128/128
f 126/126/126 128/128/128 129/129/129
f 129/129/129 130/130/130 131/131/131
f 129/129/129 131/131/131 126/126/126
f 132/132/132 9/9/9 21/21/21
f 9/9/9 14/14/14 21/21/21
f 21/21/21 14/14/14 22/22/22
f 14/14/14 133/133/133 22/22/22
f 22/22/22 133/133/133 27/27/27
f 5/5/5 134/134/134 1/1/1
f 134/134/134 135/135/135 1/1/1
f 1/1/1 135/135/135 23/23/23
f 3/3/3 6/6/6 1/1/1
f 6/6/6 5/5/5 1/1/1
f 9/9/9 132/132/132 12/12/12
f 132/132/132 136/136/136 12/12/12
f 21/21/21 25/25/25 132/132/132
f 25/25/25 28/28/28 132/132/132
f 132/132/132 28/28/28 136/136/136
f 133/133/133 14/14/14 137/137/137
f 14/14/14 11/11/11 137/137/137
f 137/137/137 11/11/11 138/138/138
f 16/16/16 25/25/25 17/17/17
f 25/25/25 26/26/26 17/17/17
f 101/101/101 139/139/139 85/85/85
f 139/139/139 69/69/69 85/85/85
f 85/85/85 69/69/69 38/38/38
f 69/69/69 68/68/68 38/38/38
f 29/29/29 31/31/31 89/89/89
f 31/31/31 140/140/140 89/89/89
f 89/89/89 140/140/140 141/141/141
f 140/140/140 142/142/142 141/141/141
f 141/141/141 142/142/142 143/143/143
f 144/144/144 145/145/145 139/139/139
f 145/145/145 69/69/69 139/139/139
f 66/66/66 146/146/146 64/64/64
f 146/146/146 147/147/147 64/64/64
f 139/139/139 148/148/148 144/144/144
f 148/148/148 149/149/149 144/144/144
f 82/82/82 86/86/86 42/42/42
f 86/86/86 88/88/88 42/42/42
f 86/86/86 82/82/82 45/45/45
f 82/82/82 46/46/46 45/45/45
f 39/39/39 150/150/150 62/62/62
f 150/150/150 151/151/151 62/62/62
f 65/65/65 56/56/56 66/66/66
f 56/56/56 55/55/55 66/66/66
f 66/66/66 55/55/55 152/152/152
f 55/55/55 153/153/153 152/152/152
f 152/152/152 153/153/153 102/102/102
f 153/153/153 154/154/154 102/102/102
f 102/102/102 154/154/154 97/97/97
f 62/62/62 32/32/32 39/39/39
f 32/32/32 52/52/52 39/39/39
f 75/75/75 77/77/77 92/92/92
f 77/77/77 155/155/155 92/92/92
f 92/92/92 155/155/155 156/156/156
f 155/155/155 157/157/157 156/156/156
f 156/156/156 157/157/157 158/158/158
f 44/44/44 48/48/48 95/95/95
f 48/48/48 50/50/50 95/95/95
f 78/78/78 79/79/79 96/96/96
f 79/79/79 81/81/81 96/96/96
f 99/99/99 159/159/159 100/100/100
f 159/159/159 160/160/160 100/100/100
f 100/100/100 160/160/160 98/98/98
f 160/160/160 86/86/86 98/98/98
f 161/161/161 104/104/104 108/108/108
f 104/104/104 110/110/110 108/108/108
f 108/108/108 110/110/110 162/162/162
f 110/110/110 112/112/112 162/162/162
f 162/162/162 112/112/112 163/163/163
f 108/108/108 164/164/164 106/106/106
f 164/164/164 165/165/165 106/106/106
f 106/106/106 165/165/165 107/107/107
f 165/165/165 161/161/161 107/107/107
f 107/107/107 161/161/161 108/108/108
f 165/165/165 164/164/164 103/103/103
f 164/164/164 166/166/166 103/103/103
f 103/103/103 166/166/166 113/113/113
f 166/166/166 167/167/167 113/113/113
f 113/113/113 167/167/167 111/111/111
f 103/103/103 109/109/109 165/165/165
f 109/109/109 105/105/105 165/165/165
f 165/165/165 105/105/105 161/161/161
f 105/105/105 104/104/104 161/161/161
f 162/162/162 163/163/163 166/166/166
f 163/163/163 167/167/167 166/166/166
f 166/166/166 164/164/164 162/162/162
f 164/164/164 108/108/108 162/162/162
f 116/116/116 118/118/118 114/114/114
f 118/118/118 117/117/117 114/114/114
f 114/114/114 117/117/117 120/120/120
f 117/117/117 168/168/168 120/120/120
f 120/120/120 168/168/168 125/125/125
f 168/168/168 124/124/124 125/125/125
f 125/125/125 124/124/124 169/169/169
f 124/124/124 123/123/123 169/169/169
f 169/169/169 123/123/123 170/170/170
f 123/123/123 119/119/119 170/170/170
f 170/170/170 119/119/119 116/116/116
f 119/119/119 118/118/118 116/116/116
f 114/114/114 121/121/121 115/115/115
f 121/121/121 122/122/122 115/115/115
f 119/119/119 124/124/124 117/117/117
f 124/124/124 168/168/168 117/117/117
